PathFileType	4	(X/Y/Z)	c:/Users/goper/Files/vsCode/490R/osim_files/A05/A05_Slow_02.trc
DataRate	CameraRate	NumFrames	NumMarkers	Units                	OrigDataRate	OrigDataStartFrame	OrigNumFrames
250.00	250.00	5	36	mm	250.0	1342	3578
                Frame#	Time	LPSIS			LASIS			LTH1			LTH2			LTH3			LTH4			LLFE			LMFE			LSH1			LSH2			LSH3			LSH4			LLMAL			LMMAL			LCAL			LMTP5			LTOE			LMTP1			RPSIS			RASIS			RTH1			RTH2			RTH3			RTH4			RLFE			RMFE			RSH1			RSH2			RSH3			RSH4			RLMAL			RMMAL			RCAL			RMTP1			RTOE			RMTP5		
		X1	Y1	Z1	X2	Y2	Z2	X3	Y3	Z3	X4	Y4	Z4	X5	Y5	Z5	X6	Y6	Z6	X7	Y7	Z7	X8	Y8	Z8	X9	Y9	Z9	X10	Y10	Z10	X11	Y11	Z11	X12	Y12	Z12	X13	Y13	Z13	X14	Y14	Z14	X15	Y15	Z15	X16	Y16	Z16	X17	Y17	Z17	X18	Y18	Z18	X19	Y19	Z19	X20	Y20	Z20	X21	Y21	Z21	X22	Y22	Z22	X23	Y23	Z23	X24	Y24	Z24	X25	Y25	Z25	X26	Y26	Z26	X27	Y27	Z27	X28	Y28	Z28	X29	Y29	Z29	X30	Y30	Z30	X31	Y31	Z31	X32	Y32	Z32	X33	Y33	Z33	X34	Y34	Z34	X35	Y35	Z35	X36	Y36	Z36

1342	5.36400	1778.86755	1022.70129	281.25806	1599.26599	902.05261	229.59372	1646.93713	691.23993	451.28082	1618.35889	656.17517	453.33688	1590.82434	719.49384	469.18661	1577.63245	683.47522	467.78870	1505.68018	518.38269	452.17471	1507.77344	512.35480	353.32605	1515.07495	419.25751	468.31439	1501.91455	373.87552	473.68750	1454.66101	427.37805	456.64575	0.00000	0.00000	0.00000	1424.07568	161.96510	479.70026	1424.05273	160.68451	389.73175	1486.18188	85.34996	430.66809	1285.09619	140.60234	512.84137	1241.49329	173.22137	450.29254	1277.65149	150.69031	403.14673	1767.21191	1027.50256	200.52036	0.00000	0.00000	0.00000	1664.75671	602.53595	64.10614	1660.67725	563.80060	76.37652	1610.77820	614.19360	83.88268	1614.66724	569.07361	96.36810	0.00000	0.00000	0.00000	0.00000	0.00000	0.00000	1783.78931	275.38580	94.09544	0.00000	0.00000	0.00000	0.00000	0.00000	0.00000	0.00000	0.00000	0.00000	0.00000	0.00000	0.00000	1677.62000	507.27872	226.12177	0.00000	0.00000	0.00000	0.00000	0.00000	0.00000	0.00000	0.00000	0.00000	1644.13501	91.32614	166.21683
1343	5.36800	1776.08557	1022.20337	281.92371	0.00000	0.00000	0.00000	1643.60352	690.55548	451.39200	1615.24438	655.74976	453.53760	0.00000	0.00000	0.00000	1574.32812	682.92792	468.05087	1501.92749	517.99792	452.41122	1503.86304	512.19800	353.65186	1511.16577	418.93481	468.37695	1497.92261	373.56052	473.75262	1450.73181	427.18140	456.86929	0.00000	0.00000	0.00000	1417.68994	161.48105	478.75818	1419.03711	160.78123	389.68881	1479.74414	86.65013	429.22891	1280.29419	140.91423	513.16437	1236.64661	173.73447	450.66516	1272.67773	151.10570	403.48788	1764.57971	1027.08240	201.19157	1580.84766	979.87329	99.38435	1663.27283	602.27698	64.44305	1659.27307	563.53784	76.71790	1609.29456	613.84674	84.19499	1613.34229	568.68585	96.62565	0.00000	0.00000	0.00000	0.00000	0.00000	0.00000	1783.28284	275.36316	94.36658	0.00000	0.00000	0.00000	0.00000	0.00000	0.00000	0.00000	0.00000	0.00000	0.00000	0.00000	0.00000	1676.32642	506.98337	226.44456	0.00000	0.00000	0.00000	0.00000	0.00000	0.00000	0.00000	0.00000	0.00000	1644.14258	91.26908	166.25044
1344	5.37200	1773.33093	1021.78870	282.60471	0.00000	0.00000	0.00000	1640.42688	689.95447	451.52499	1614.30945	656.01056	454.78467	0.00000	0.00000	0.00000	1571.13110	682.51141	468.34402	1498.29724	517.68591	452.63687	1500.08801	511.94702	353.92050	1507.28650	418.58920	468.48813	1493.89307	373.23969	473.82245	1446.77307	426.94540	457.04669	0.00000	0.00000	0.00000	1412.98328	161.41953	478.69925	1414.27783	160.80972	389.66589	1474.80579	86.48515	428.95102	1274.90259	140.82433	512.72015	1233.17310	173.87523	452.17654	1267.78992	151.47205	403.69214	1761.94128	1026.66187	201.85019	1578.30396	979.42572	99.78646	1661.83862	602.07361	64.74892	1657.86877	563.27582	77.01964	1607.78455	613.51080	84.43144	1611.88281	568.26410	97.04454	0.00000	0.00000	0.00000	0.00000	0.00000	0.00000	1782.77991	275.36813	94.64698	0.00000	0.00000	0.00000	0.00000	0.00000	0.00000	0.00000	0.00000	0.00000	0.00000	0.00000	0.00000	1675.04211	506.75916	226.76923	0.00000	0.00000	0.00000	0.00000	0.00000	0.00000	0.00000	0.00000	0.00000	1644.14783	91.28953	166.27748
1345	5.37600	1770.50012	1021.24030	283.29987	0.00000	0.00000	0.00000	1637.13257	689.32953	451.70291	1611.05945	655.50043	454.98303	0.00000	0.00000	0.00000	1567.78943	681.91418	468.58044	1494.74561	517.37659	452.84180	1496.27344	511.60855	354.26743	1503.43494	418.16745	468.59641	1489.85486	372.81616	473.93384	1442.86768	426.68478	457.25809	0.00000	0.00000	0.00000	1408.60767	161.35159	478.70386	1409.58752	160.73460	389.69812	1469.99939	86.23943	428.79810	1269.39648	139.90530	512.94409	1227.50537	174.78485	451.27466	1263.17236	151.92984	403.89755	1759.27295	1026.24207	202.56824	1575.87061	979.07928	100.11158	1660.32080	601.84753	65.07519	1654.53760	562.19116	78.29368	1606.24487	613.15540	84.77702	1610.44568	567.86554	97.35368	0.00000	0.00000	0.00000	0.00000	0.00000	0.00000	1782.29395	275.41730	94.89040	0.00000	0.00000	0.00000	0.00000	0.00000	0.00000	0.00000	0.00000	0.00000	0.00000	0.00000	0.00000	1673.80530	506.55603	227.12714	0.00000	0.00000	0.00000	0.00000	0.00000	0.00000	0.00000	0.00000	0.00000	1644.15100	91.25833	166.25058
1346	5.38000	1767.62158	1020.75031	284.03207	0.00000	0.00000	0.00000	1633.79297	688.66791	451.92911	1607.61951	654.83179	455.19785	0.00000	0.00000	0.00000	1564.49231	681.35510	468.86450	1491.13196	516.91895	453.08142	1492.63391	511.24219	354.59985	1499.62476	417.73685	468.77536	1485.99414	372.44882	474.06390	1439.14905	426.43115	457.52179	0.00000	0.00000	0.00000	1404.28320	161.19440	478.81403	1405.08801	160.65518	389.76093	1465.39246	85.90703	428.71188	1264.94861	139.93614	513.10138	1223.13379	175.11971	451.54422	1258.62329	152.18771	404.16351	1756.54443	1025.76697	203.31174	1573.33875	978.67102	100.40608	1658.82349	601.64459	65.39443	1653.12708	561.96161	78.56782	1604.67883	612.66748	85.26892	1609.00122	567.50903	97.61213	0.00000	0.00000	0.00000	0.00000	0.00000	0.00000	1781.69458	275.34109	95.13545	0.00000	0.00000	0.00000	0.00000	0.00000	0.00000	0.00000	0.00000	0.00000	0.00000	0.00000	0.00000	1672.42505	506.24774	227.35966	0.00000	0.00000	0.00000	0.00000	0.00000	0.00000	0.00000	0.00000	0.00000	1644.17322	91.30381	166.32826
